<svg width="22" height="22" viewBox="0 0 22 22" fill="none" xmlns="http://www.w3.org/2000/svg">
  <path fill="currentColor" d="M8.25 3.66667H4.58333C4.07707 3.66667 3.66667 4.07707 3.66667 4.58333V8.25C3.66667 8.75626 4.07707 9.16667 4.58333 9.16667H8.25C8.75626 9.16667 9.16667 8.75626 9.16667 8.25V4.58333C9.16667 4.07707 8.75626 3.66667 8.25 3.66667Z" fill="currentColor"/>
  <path fill="currentColor" d="M17.4167 3.66667H13.75C13.2437 3.66667 12.8333 4.07707 12.8333 4.58333V8.25C12.8333 8.75626 13.2437 9.16667 13.75 9.16667H17.4167C17.9229 9.16667 18.3333 8.75626 18.3333 8.25V4.58333C18.3333 4.07707 17.9229 3.66667 17.4167 3.66667Z" fill="currentColor"/>
  <path fill="currentColor" d="M8.25 12.8333H4.58333C4.07707 12.8333 3.66667 13.2437 3.66667 13.75V17.4167C3.66667 17.9229 4.07707 18.3333 4.58333 18.3333H8.25C8.75626 18.3333 9.16667 17.9229 9.16667 17.4167V13.75C9.16667 13.2437 8.75626 12.8333 8.25 12.8333Z" fill="currentColor"/>
  <path fill="currentColor" d="M17.4167 12.8333H13.75C13.2437 12.8333 12.8333 13.2437 12.8333 13.75V17.4167C12.8333 17.9229 13.2437 18.3333 13.75 18.3333H17.4167C17.9229 18.3333 18.3333 17.9229 18.3333 17.4167V13.75C18.3333 13.2437 17.9229 12.8333 17.4167 12.8333Z" fill="currentColor"/>
  <path d="M8.25 3.66667H4.58333C4.07707 3.66667 3.66667 4.07707 3.66667 4.58333V8.25C3.66667 8.75626 4.07707 9.16667 4.58333 9.16667H8.25C8.75626 9.16667 9.16667 8.75626 9.16667 8.25V4.58333C9.16667 4.07707 8.75626 3.66667 8.25 3.66667Z" stroke="currentColor" stroke-width="2" stroke-linecap="round" stroke-linejoin="round"/>
  <path d="M17.4167 3.66667H13.75C13.2437 3.66667 12.8333 4.07707 12.8333 4.58333V8.25C12.8333 8.75626 13.2437 9.16667 13.75 9.16667H17.4167C17.9229 9.16667 18.3333 8.75626 18.3333 8.25V4.58333C18.3333 4.07707 17.9229 3.66667 17.4167 3.66667Z" stroke="currentColor" stroke-width="2" stroke-linecap="round" stroke-linejoin="round"/>
  <path d="M8.25 12.8333H4.58333C4.07707 12.8333 3.66667 13.2437 3.66667 13.75V17.4167C3.66667 17.9229 4.07707 18.3333 4.58333 18.3333H8.25C8.75626 18.3333 9.16667 17.9229 9.16667 17.4167V13.75C9.16667 13.2437 8.75626 12.8333 8.25 12.8333Z" stroke="currentColor" stroke-width="2" stroke-linecap="round" stroke-linejoin="round"/>
  <path d="M17.4167 12.8333H13.75C13.2437 12.8333 12.8333 13.2437 12.8333 13.75V17.4167C12.8333 17.9229 13.2437 18.3333 13.75 18.3333H17.4167C17.9229 18.3333 18.3333 17.9229 18.3333 17.4167V13.75C18.3333 13.2437 17.9229 12.8333 17.4167 12.8333Z" stroke="currentColor" stroke-width="2" stroke-linecap="round" stroke-linejoin="round"/>
</svg>
