<svg width="22" height="22" viewBox="0 0 22 22" fill="none" xmlns="http://www.w3.org/2000/svg">
<g clip-path="url(#clip0_2_10)">
<path fill="currentColor" d="M15.7953 0.0816405C15.5246 0.262109 15.5117 0.317969 15.5117 1.28906C15.5117 2.07969 15.5203 2.18281 15.5934 2.29453C15.7266 2.49219 15.8898 2.57812 16.1562 2.57812C16.4227 2.57812 16.5859 2.49219 16.7191 2.29453C16.7922 2.18281 16.8008 2.07969 16.8008 1.28906C16.8008 0.498437 16.7922 0.395313 16.7191 0.283594C16.5859 0.0859375 16.4227 0 16.1562 0C15.9973 0 15.8812 0.0257812 15.7953 0.0816405Z" fill="#7C8493"/>
<path fill="currentColor" d="M11.9281 1.3707C11.7262 1.50391 11.6445 1.66719 11.6445 1.93789C11.6445 2.13555 11.666 2.20859 11.7691 2.34609C11.9152 2.53945 13.0754 3.69102 13.2344 3.79844C13.3848 3.89727 13.7801 3.88867 13.9391 3.78555C14.141 3.65234 14.2227 3.48906 14.2227 3.21836C14.2227 3.0207 14.2012 2.94766 14.098 2.81016C13.952 2.6168 12.7918 1.46523 12.6328 1.35781C12.4824 1.25898 12.0871 1.26758 11.9281 1.3707Z" fill="#7C8493"/>
<path fill="currentColor" d="M19.6109 1.41367C19.4176 1.55977 18.266 2.71992 18.1586 2.87891C18.0598 3.0293 18.0684 3.42461 18.1715 3.58359C18.3047 3.78125 18.468 3.86719 18.7344 3.86719C18.8848 3.86719 19.0137 3.84141 19.0781 3.79844C19.2371 3.69102 20.3973 2.53945 20.5434 2.34609C20.6465 2.20859 20.668 2.13555 20.668 1.93789C20.668 1.52109 20.4359 1.28906 20.0191 1.28906C19.8215 1.28906 19.7484 1.31055 19.6109 1.41367Z" fill="#7C8493"/>
<path fill="currentColor" d="M5.20352 2.70273C4.68789 2.89609 4.31406 3.23555 4.06914 3.73398C3.94023 4.00469 3.93164 4.04766 3.91875 4.60625L3.90156 5.19922H2.15703C0.515625 5.19922 0.399609 5.20351 0.283594 5.28086C0.219141 5.32383 0.124609 5.41836 0.0816405 5.48281C0.00429679 5.59883 -7.96281e-08 5.72344 -7.96281e-08 7.77734C-7.96281e-08 10.5531 -0.111719 10.3211 1.22461 10.3555C1.98086 10.377 2.10117 10.3855 2.22578 10.4629C2.63828 10.7121 2.63828 11.2879 2.22578 11.5371C2.10117 11.6145 1.98086 11.623 1.22461 11.6445C0.292187 11.666 0.244922 11.6789 0.0816405 11.9324C0.00429679 12.0441 -7.96281e-08 12.1816 -7.96281e-08 14.2227C-7.96281e-08 16.2766 0.00429679 16.4012 0.0816405 16.5172C0.124609 16.5816 0.219141 16.6762 0.283594 16.7191C0.399609 16.7965 0.524219 16.8008 2.59961 16.8008C5.40117 16.8008 5.16484 16.9125 5.19922 15.5762C5.2207 14.8199 5.2293 14.6996 5.30664 14.575C5.55586 14.1625 6.13164 14.1625 6.38086 14.575C6.4582 14.6996 6.4668 14.8199 6.48828 15.5762C6.50977 16.5086 6.52266 16.5559 6.77617 16.7191C6.89219 16.7965 7.06836 16.8008 10.5574 16.8008H14.2141L14.2312 17.3895C14.2441 17.9523 14.2527 17.9953 14.3816 18.266C14.6309 18.773 15.009 19.1082 15.5375 19.2973C15.748 19.3703 15.8684 19.3832 16.2422 19.3703C16.6504 19.3574 16.7234 19.3402 16.9941 19.207C17.3895 19.018 17.7289 18.6785 17.9223 18.2832C18.0598 17.9953 18.0684 17.9609 18.0812 17.3937L18.0984 16.8008H19.843C21.4844 16.8008 21.6004 16.7965 21.7164 16.7191C21.7809 16.6762 21.8754 16.5816 21.9184 16.5172C21.9957 16.4012 22 16.2766 22 14.2227C22 11.4469 22.1117 11.6789 20.7754 11.6445C20.0191 11.623 19.8988 11.6145 19.7742 11.5371C19.3617 11.2879 19.3617 10.7121 19.7742 10.4629C19.8988 10.3855 20.0191 10.377 20.7754 10.3555C21.7078 10.334 21.7551 10.3211 21.9184 10.0676C21.9957 9.95586 22 9.81836 22 7.77734C22 5.72344 21.9957 5.59883 21.9184 5.48281C21.8754 5.41836 21.7809 5.32383 21.7164 5.28086C21.6004 5.20351 21.4758 5.19922 19.4004 5.19922C16.5988 5.19922 16.8352 5.0875 16.8008 6.42383C16.7793 7.21016 16.7707 7.29609 16.6848 7.43359C16.4312 7.8418 15.8641 7.8375 15.6191 7.425C15.5418 7.30039 15.5332 7.18008 15.5117 6.42383C15.4902 5.49141 15.4773 5.44414 15.2238 5.28086C15.1078 5.20351 14.9316 5.19922 11.4426 5.19922H7.78594L7.76875 4.60625C7.75586 4.03906 7.74726 4.00469 7.60977 3.7168C7.41641 3.32148 7.07695 2.98203 6.68164 2.79297C6.40234 2.65547 6.34219 2.64258 5.9082 2.63398C5.52148 2.62109 5.39258 2.63398 5.20352 2.70273ZM6.15312 4.02617C6.22187 4.06914 6.3207 4.17226 6.37227 4.25391C6.4582 4.39141 6.4668 4.47734 6.48828 5.26367C6.50977 6.19609 6.52266 6.24336 6.77617 6.40664C6.88789 6.48398 7.0168 6.48828 8.62812 6.48828H10.3555V8.21562C10.3555 10.4844 10.2652 10.3211 11.5801 10.3555C12.3363 10.377 12.4566 10.3855 12.5812 10.4629C12.9937 10.7078 12.998 11.275 12.5898 11.5285C12.4523 11.6145 12.3664 11.623 11.5801 11.6445C10.6477 11.666 10.6004 11.6789 10.4371 11.9324C10.3598 12.0441 10.3555 12.173 10.3555 13.7801V15.5117H9.0707H7.78594L7.76875 14.9187C7.75586 14.3516 7.74726 14.3172 7.60977 14.0293C7.41641 13.634 7.07695 13.2945 6.68164 13.1012C6.38945 12.9594 6.36797 12.9551 5.84375 12.9551C5.31953 12.9551 5.29805 12.9594 5.00586 13.1012C4.61055 13.2945 4.27109 13.634 4.07773 14.0293C3.94023 14.3172 3.93164 14.3516 3.91875 14.9187L3.90156 15.5117H2.59531H1.28906V14.227V12.9422L1.87773 12.925C2.44922 12.9121 2.48359 12.9035 2.77148 12.766C3.1668 12.5727 3.50625 12.2332 3.69961 11.8379C3.84141 11.5457 3.8457 11.5242 3.8457 11C3.8457 10.4758 3.84141 10.4543 3.69961 10.1621C3.50625 9.7668 3.1668 9.42734 2.77148 9.23398C2.48359 9.09648 2.44922 9.08789 1.88203 9.075L1.28906 9.05781V7.77305V6.48828H3.04219C5.32812 6.48828 5.16484 6.57851 5.19922 5.26367C5.2207 4.48594 5.2293 4.39141 5.31094 4.2625C5.5 3.96601 5.86953 3.86289 6.15312 4.02617ZM14.2312 7.07695C14.2441 7.63984 14.2527 7.68281 14.3816 7.95351C14.6309 8.46055 15.009 8.7957 15.5375 8.98476C15.748 9.05781 15.8684 9.0707 16.2422 9.05781C16.6504 9.04492 16.7234 9.02773 16.9941 8.89453C17.3895 8.70547 17.7289 8.36601 17.9223 7.9707C18.0598 7.68281 18.0684 7.64844 18.0812 7.07695L18.0984 6.48828H19.4047H20.7109V7.77305V9.05781L20.1223 9.075C19.5508 9.08789 19.5164 9.09648 19.2285 9.23398C18.8332 9.42734 18.4937 9.7668 18.3004 10.1621C18.1586 10.4543 18.1543 10.4758 18.1543 11C18.1543 11.5156 18.1586 11.5457 18.2918 11.8207C18.541 12.3277 18.9191 12.6672 19.4434 12.8477C19.6367 12.9164 19.8043 12.9336 20.2039 12.9336H20.7109V14.2227V15.5117H18.9621C16.6719 15.5117 16.8352 15.4215 16.8008 16.7363C16.7793 17.4926 16.7707 17.6129 16.6934 17.7375C16.4441 18.15 15.8684 18.15 15.6191 17.7375C15.5418 17.6129 15.5332 17.4926 15.5117 16.7363C15.4902 15.8039 15.4773 15.7566 15.2238 15.5934C15.1121 15.516 14.9832 15.5117 13.3762 15.5117H11.6445V14.227V12.9422L12.2375 12.925C12.8047 12.9121 12.8391 12.9035 13.127 12.766C13.5223 12.5727 13.8617 12.2332 14.0551 11.8379C14.1969 11.5457 14.2012 11.5242 14.2012 11C14.2012 10.4758 14.1969 10.4543 14.0551 10.1621C13.8617 9.7668 13.5223 9.42734 13.127 9.23398C12.8391 9.09648 12.8047 9.08789 12.2375 9.075L11.6445 9.05781V7.77305V6.48828H12.9293H14.2141L14.2312 7.07695Z" fill="#7C8493"/>
<path fill="currentColor" d="M2.85313 18.2574C2.63398 18.4207 1.44375 19.6281 1.375 19.7613C1.34922 19.8172 1.32344 19.9547 1.32344 20.075C1.32773 20.3199 1.43516 20.5262 1.62422 20.6379C1.7918 20.7324 2.17852 20.7367 2.32031 20.6422C2.4793 20.5348 3.63945 19.3832 3.78555 19.1898C3.88867 19.0523 3.91016 18.9793 3.91016 18.7816C3.91016 18.3648 3.67813 18.1328 3.26133 18.1328C3.06367 18.1328 2.99063 18.1543 2.85313 18.2574Z" fill="#7C8493"/>
<path fill="currentColor" d="M8.06094 18.2145C7.85898 18.3477 7.77734 18.5109 7.77734 18.7816C7.77734 18.9793 7.79883 19.0523 7.90195 19.1898C8.04805 19.3832 9.2082 20.5348 9.36719 20.6422C9.51758 20.741 9.91289 20.7324 10.0719 20.6293C10.2738 20.4961 10.3555 20.3328 10.3555 20.0621C10.3555 19.8645 10.334 19.7914 10.2309 19.6539C10.0848 19.4605 8.92461 18.309 8.76562 18.2016C8.61523 18.1027 8.21992 18.1113 8.06094 18.2145Z" fill="#7C8493"/>
<path fill="currentColor" d="M5.48281 19.5035C5.21211 19.684 5.19922 19.7398 5.19922 20.7109C5.19922 21.682 5.21211 21.7379 5.48281 21.9184C5.65039 22.0301 6.03711 22.0301 6.20469 21.9184C6.47539 21.7379 6.48828 21.682 6.48828 20.7109C6.48828 19.9203 6.47969 19.8172 6.40664 19.7055C6.27344 19.5078 6.11016 19.4219 5.84375 19.4219C5.68477 19.4219 5.56875 19.4477 5.48281 19.5035Z" fill="#7C8493"/>
</g>
<defs>
<clipPath id="clip0_2_10">
<rect width="22" height="22" fill="white"/>
</clipPath>
</defs>
</svg>
