<svg width="22" height="22" viewBox="0 0 22 22" fill="none" xmlns="http://www.w3.org/2000/svg">
<path fill="currentColor" d="M9.43164 1.16445C7.96641 1.30625 7.04687 1.96367 6.76758 3.07227C6.69023 3.39023 6.61719 4.03906 6.61719 4.47305V4.79961L5.92109 4.82539C2.87031 4.93281 1.36211 6.24766 1.36641 8.78711C1.3707 9.49609 2.07109 17.0285 2.19141 17.6516C2.56094 19.525 3.73828 20.5004 5.99414 20.8055C6.62148 20.8871 15.3785 20.8871 16.0059 20.8055C18.3004 20.4961 19.4949 19.4734 19.8301 17.5398C19.9461 16.8609 20.6293 9.44023 20.6336 8.80859C20.6422 6.25195 19.1383 4.93281 16.0832 4.82539L15.3828 4.79961V4.47305C15.3742 2.8875 14.9703 2.02812 14.0078 1.55547C13.5566 1.33203 13.1312 1.22461 12.4996 1.16445C11.9324 1.10859 9.99453 1.11289 9.43164 1.16445ZM12.9078 2.63828C13.6812 2.81445 13.9004 3.15391 13.952 4.24102L13.9777 4.8125H11H8.02226L8.04805 4.24102C8.08672 3.38164 8.21992 3.04219 8.60664 2.81875C9.01055 2.58242 9.44453 2.53945 11.1934 2.55664C12.2977 2.56523 12.6758 2.58242 12.9078 2.63828ZM16.8437 6.29062C18.223 6.52695 18.8891 7.0125 19.1426 7.9707C19.1898 8.14258 19.2113 8.41328 19.2113 8.8C19.2156 9.70664 19.2457 9.63789 18.6355 10.0289C18.0684 10.3898 17.093 10.8969 16.4785 11.1504C16.0703 11.3223 15.2668 11.6016 15.1895 11.6016C15.168 11.6016 15.1035 11.4898 15.052 11.3523C14.5793 10.1406 13.4234 9.13086 12.0957 8.77852C11.7176 8.67969 11.5844 8.6668 11 8.6668C10.4156 8.6668 10.2824 8.67969 9.9043 8.77852C8.58516 9.13086 7.52383 10.0418 6.97383 11.2965C6.85351 11.5715 6.81484 11.623 6.7375 11.6145C6.58711 11.6059 5.58164 11.232 5.01016 10.9742C4.42578 10.7121 3.69531 10.3168 3.19687 9.99023C2.86172 9.77109 2.84453 9.75391 2.81875 9.56484C2.76289 9.19102 2.78437 8.24141 2.85742 7.9707C3.14961 6.86641 4.04336 6.34219 5.82226 6.23047C6.10586 6.21328 8.61094 6.20039 11.3867 6.20898C15.8168 6.21758 16.4871 6.22617 16.8437 6.29062ZM11.8895 10.2051C12.8691 10.5359 13.5867 11.2922 13.8617 12.2891C13.9648 12.6629 13.9648 13.3676 13.8617 13.75C13.591 14.7469 12.7273 15.6105 11.7305 15.8812C11.3523 15.9844 10.6477 15.9844 10.2695 15.8812C9.27695 15.6105 8.39609 14.734 8.14687 13.7629C7.88047 12.7402 8.17266 11.6832 8.91601 10.9355C9.32851 10.5273 9.94297 10.1965 10.493 10.0977C10.8754 10.0289 11.507 10.0805 11.8895 10.2051ZM18.9922 11.5758C18.9922 11.8293 18.4594 17.1703 18.4121 17.3937C18.2875 17.991 18.1242 18.309 17.7719 18.6398C17.3723 19.018 16.7707 19.2629 15.907 19.3875C15.3699 19.4691 6.63008 19.4691 6.09297 19.3875C4.5375 19.1598 3.84141 18.6055 3.58789 17.4023C3.54062 17.1832 3.00781 11.8293 3.00781 11.5887C3.00781 11.5801 3.36016 11.7477 3.79414 11.9668C4.62773 12.3879 5.42266 12.7145 6.15742 12.9379L6.60859 13.0754L6.63867 13.3805C6.76328 14.7211 7.47226 15.9199 8.57656 16.6547C10.3082 17.8062 12.6156 17.5828 14.0809 16.1176C14.8113 15.3871 15.2152 14.5449 15.3527 13.4707L15.4043 13.0496L16.1133 12.809C16.9598 12.5168 17.8578 12.1258 18.4766 11.7777C18.9707 11.4941 18.9922 11.4898 18.9922 11.5758Z" fill="#7C8493"/>
<path fill="currentColor" d="M12.0441 11.6102C11.9711 11.666 11.5887 12.0012 11.202 12.3621L10.4973 13.0152L10.2652 12.7789C10.0074 12.5168 9.93008 12.4609 9.72383 12.418C9.20391 12.2977 8.73125 12.8047 8.89883 13.3074C8.95898 13.5051 9.69375 14.2699 9.94726 14.4074C10.1965 14.5449 10.7766 14.5406 11.0301 14.4031C11.2148 14.3043 12.8777 12.7961 13.0324 12.5813C13.1656 12.4008 13.1742 12.0914 13.0539 11.8637C12.925 11.623 12.7316 11.5156 12.418 11.5156C12.2375 11.5156 12.143 11.5414 12.0441 11.6102Z" fill="#7C8493"/>
</svg>
