<svg width="24" height="24" viewBox="0 0 24 24" fill="none" xmlns="http://www.w3.org/2000/svg">
<path fill="currentColor" fill-rule="evenodd" clip-rule="evenodd" d="M12 4.99999C11.4696 4.99999 10.9609 5.2107 10.5858 5.58578C10.2107 5.96085 10 6.46956 10 6.99999C10 7.53042 10.2107 8.03913 10.5858 8.4142C10.9609 8.78928 11.4696 8.99999 12 8.99999C12.5304 8.99999 13.0392 8.78928 13.4142 8.4142C13.7893 8.03913 14 7.53042 14 6.99999C14 6.46956 13.7893 5.96085 13.4142 5.58578C13.0392 5.2107 12.5304 4.99999 12 4.99999ZM9.17158 4.17156C9.92173 3.42142 10.9391 2.99999 12 2.99999C13.0609 2.99999 14.0783 3.42142 14.8284 4.17156C15.5786 4.92171 16 5.93912 16 6.99999C16 8.06086 15.5786 9.07827 14.8284 9.82842C14.0783 10.5786 13.0609 11 12 11C10.9391 11 9.92173 10.5786 9.17158 9.82842C8.42144 9.07827 8.00001 8.06086 8.00001 6.99999C8.00001 5.93912 8.42144 4.92171 9.17158 4.17156ZM5.00001 8.99999C4.73479 8.99999 4.48044 9.10535 4.2929 9.29288C4.10537 9.48042 4.00001 9.73477 4.00001 9.99999C4.00001 10.2652 4.10537 10.5196 4.2929 10.7071C4.48044 10.8946 4.73479 11 5.00001 11C5.26523 11 5.51958 10.8946 5.70712 10.7071C5.89465 10.5196 6.00001 10.2652 6.00001 9.99999C6.00001 9.73477 5.89465 9.48042 5.70712 9.29288C5.51958 9.10535 5.26523 8.99999 5.00001 8.99999ZM2.87869 7.87867C3.4413 7.31606 4.20436 6.99999 5.00001 6.99999C5.79566 6.99999 6.55872 7.31606 7.12133 7.87867C7.68394 8.44128 8.00001 9.20434 8.00001 9.99999C8.00001 10.7956 7.68394 11.5587 7.12133 12.1213C6.55872 12.6839 5.79566 13 5.00001 13C4.20436 13 3.4413 12.6839 2.87869 12.1213C2.31608 11.5587 2.00001 10.7956 2.00001 9.99999C2.00001 9.20434 2.31608 8.44128 2.87869 7.87867ZM19 8.99999C18.7348 8.99999 18.4804 9.10535 18.2929 9.29288C18.1054 9.48042 18 9.73477 18 9.99999C18 10.2652 18.1054 10.5196 18.2929 10.7071C18.4804 10.8946 18.7348 11 19 11C19.2652 11 19.5196 10.8946 19.7071 10.7071C19.8947 10.5196 20 10.2652 20 9.99999C20 9.73477 19.8947 9.48042 19.7071 9.29288C19.5196 9.10535 19.2652 8.99999 19 8.99999ZM16.8787 7.87867C17.4413 7.31606 18.2044 6.99999 19 6.99999C19.7957 6.99999 20.5587 7.31606 21.1213 7.87867C21.6839 8.44128 22 9.20434 22 9.99999C22 10.7956 21.6839 11.5587 21.1213 12.1213C20.5587 12.6839 19.7957 13 19 13C18.2044 13 17.4413 12.6839 16.8787 12.1213C16.3161 11.5587 16 10.7956 16 9.99999C16 9.20434 16.3161 8.44128 16.8787 7.87867ZM12 13.9993C11.2003 13.9993 10.4189 14.2389 9.75659 14.6872C9.13229 15.1098 8.64085 15.6996 8.33766 16.3878L8.09656 19H15.9035L15.6624 16.3878C15.3592 15.6996 14.8677 15.1098 14.2434 14.6872C13.5812 14.2389 12.7998 13.9993 12 13.9993ZM18 19H21V18.0001C21 18 21 18.0001 21 18.0001C21 17.5844 20.8704 17.1791 20.6294 16.8405C20.3884 16.5018 20.0479 16.2467 19.6552 16.1106C19.2625 15.9744 18.8371 15.964 18.4382 16.0807C18.2014 16.15 17.981 16.2621 17.7871 16.41C17.9262 16.9175 18 17.451 18 18V19ZM16.9298 14.5776C16.51 13.9732 15.9804 13.4479 15.3646 13.031C14.3713 12.3586 13.1994 11.9993 12 11.9993C10.8006 11.9993 9.62868 12.3586 8.63544 13.031C8.01964 13.4479 7.49003 13.9732 7.07025 14.5776C6.77576 14.3995 6.45784 14.2591 6.12366 14.1613C5.32585 13.9278 4.4751 13.9486 3.68968 14.2209C2.90426 14.4932 2.22319 15.0035 1.74116 15.6808C1.25912 16.358 1.00007 17.1686 1.00001 17.9999V20C1.00001 20.5523 1.44773 21 2.00001 21H22C22.5523 21 23 20.5523 23 20V18C22.9999 17.1687 22.7409 16.358 22.2589 15.6808C21.7768 15.0035 21.0958 14.4932 20.3103 14.2209C19.5249 13.9486 18.6742 13.9278 17.8764 14.1613C17.5422 14.2591 17.2243 14.3995 16.9298 14.5776ZM6.21296 16.41C6.01906 16.2621 5.7986 16.15 5.56184 16.0807C5.16293 15.964 4.73755 15.9744 4.34484 16.1106C3.95213 16.2467 3.6116 16.5019 3.37058 16.8405C3.12958 17.1791 3.00006 17.5844 3.00001 18C3.00001 18 3.00001 18 3.00001 18V19H6.00001V18C6.00001 17.451 6.07384 16.9175 6.21296 16.41Z" fill="#7C8493"/>
</svg>
