<svg width="25" height="25" viewBox="0 0 25 25" fill="none" xmlns="http://www.w3.org/2000/svg">
<path d="M9.47461 5.87109C9.2757 5.87109 9.08493 5.95011 8.94428 6.09076C8.80363 6.23142 8.72461 6.42218 8.72461 6.62109C8.72461 6.82001 8.80363 7.01077 8.94428 7.15142C9.08493 7.29208 9.2757 7.37109 9.47461 7.37109H15.4746C15.6735 7.37109 15.8643 7.29208 16.0049 7.15142C16.1456 7.01077 16.2246 6.82001 16.2246 6.62109C16.2246 6.42218 16.1456 6.23142 16.0049 6.09076C15.8643 5.95011 15.6735 5.87109 15.4746 5.87109H9.47461Z" fill="#0772FF"/>
<path fill-rule="evenodd" clip-rule="evenodd" d="M12.4176 1.87109C10.3446 1.87109 8.71161 1.87109 7.43561 2.04409C6.12561 2.22209 5.08061 2.59609 4.25961 3.42609C3.43961 4.25509 3.07161 5.30809 2.89561 6.62809C2.72461 7.91709 2.72461 9.56609 2.72461 11.6621V16.7601C2.72461 18.2681 2.72461 19.4611 2.82061 20.3601C2.91561 21.2481 3.11861 22.0491 3.70061 22.5851C4.16661 23.0151 4.75661 23.2851 5.38661 23.3581C6.17361 23.4481 6.90861 23.0721 7.63361 22.5581C8.36661 22.0401 9.25561 21.2531 10.3776 20.2611L10.4136 20.2291C10.9336 19.7691 11.2856 19.4591 11.5796 19.2431C11.8636 19.0361 12.0366 18.9611 12.1826 18.9311C12.3754 18.8931 12.5738 18.8931 12.7666 18.9311C12.9126 18.9611 13.0866 19.0361 13.3696 19.2431C13.6636 19.4581 14.0156 19.7691 14.5356 20.2291L14.5726 20.2611C15.6936 21.2531 16.5826 22.0401 17.3156 22.5591C18.0406 23.0721 18.7756 23.4481 19.5626 23.3581C20.1923 23.2857 20.7828 23.015 21.2486 22.5851C21.8296 22.0491 22.0336 21.2481 22.1286 20.3601C22.2246 19.4611 22.2246 18.2681 22.2246 16.7601V11.6621C22.2246 9.56609 22.2246 7.91609 22.0536 6.62809C21.8776 5.30809 21.5096 4.25509 20.6896 3.42609C19.8686 2.59609 18.8236 2.22209 17.5136 2.04409C16.2376 1.87109 14.6046 1.87109 12.5316 1.87109H12.4176ZM5.32461 4.48109C5.82161 3.97909 6.49661 3.68609 7.63661 3.53109C8.79961 3.37309 10.3306 3.37109 12.4736 3.37109C14.6166 3.37109 16.1476 3.37309 17.3106 3.53109C18.4506 3.68609 19.1256 3.97909 19.6226 4.48109C20.1206 4.98409 20.4116 5.66909 20.5656 6.82609C20.7216 8.00409 20.7236 9.55309 20.7236 11.7191V16.7121C20.7236 18.2781 20.7226 19.3921 20.6366 20.2001C20.5466 21.0301 20.3836 21.3411 20.2316 21.4821C19.9976 21.6971 19.7036 21.8321 19.3916 21.8671C19.1916 21.8901 18.8576 21.8131 18.1816 21.3351C17.5236 20.8681 16.6946 20.1371 15.5286 19.1051L15.5026 19.0821C15.0146 18.6511 14.6106 18.2941 14.2536 18.0321C13.8806 17.7601 13.5046 17.5501 13.0616 17.4611C12.6735 17.383 12.2737 17.383 11.8856 17.4611C11.4426 17.5511 11.0656 17.7601 10.6936 18.0331C10.3366 18.2931 9.93261 18.6511 9.44461 19.0821L9.41861 19.1051C8.25261 20.1371 7.42361 20.8681 6.76561 21.3351C6.08961 21.8131 5.75561 21.8901 5.55561 21.8671C5.24187 21.8311 4.9477 21.6963 4.71561 21.4821C4.56361 21.3411 4.39961 21.0301 4.31161 20.2001C4.22461 19.3911 4.22361 18.2781 4.22361 16.7121V11.7181C4.22361 9.55309 4.22561 8.00409 4.38161 6.82609C4.53561 5.66909 4.82661 4.98409 5.32461 4.48109Z" fill="#0772FF"/>
</svg>
