<svg width="22" height="23" viewBox="0 0 22 23" fill="none" xmlns="http://www.w3.org/2000/svg">
  <path opacity="0.5" d="M19.0175 10.8195V15.2605C19.0175 18.0142 19.0175 19.392 18.3646 19.9932C18.0533 20.2805 17.6602 20.4611 17.2413 20.5091C16.3634 20.6096 15.3379 19.7024 13.2877 17.8888C12.3805 17.0874 11.9277 16.6863 11.4038 16.5813C11.1455 16.5292 10.8794 16.5292 10.6211 16.5813C10.0964 16.6863 9.64363 17.0874 8.73729 17.8888C6.68712 19.7024 5.66159 20.6096 4.78371 20.5082C4.3641 20.4601 3.97068 20.2797 3.66034 19.9932C3.00749 19.392 3.00749 18.0151 3.00749 15.2605V10.8186C3.00749 7.00558 3.00749 5.09862 4.17978 3.91299C5.35207 2.72736 7.23947 2.72736 11.0125 2.72736C14.7864 2.72736 16.6729 2.72736 17.8452 3.9121C19.0175 5.09773 19.0175 7.00558 19.0175 10.8195Z" fill="currentColor"/>
  <path d="M8.34415 5.61784C8.16723 5.61784 7.99756 5.68812 7.87246 5.81322C7.74735 5.93832 7.67707 6.108 7.67707 6.28492C7.67707 6.46184 7.74735 6.63152 7.87246 6.75662C7.99756 6.88172 8.16723 6.952 8.34415 6.952H13.6808C13.8577 6.952 14.0274 6.88172 14.1525 6.75662C14.2776 6.63152 14.3479 6.46184 14.3479 6.28492C14.3479 6.108 14.2776 5.93832 14.1525 5.81322C14.0274 5.68812 13.8577 5.61784 13.6808 5.61784H8.34415Z" fill="currentColor"/>
</svg>
