<svg width="32" height="35" viewBox="0 0 32 35" fill="none" xmlns="http://www.w3.org/2000/svg">
<path d="M1.16055 0.975339C0.723631 1.49775 0.503016 2.16746 0.543905 2.84727V32.3154C0.502897 32.9952 0.723526 33.6649 1.16055 34.1873L1.25915 34.2833L17.7666 17.776V17.3866L1.25915 0.878605L1.16055 0.975339Z" fill="url(#paint0_linear_3_11)"/>
<path d="M23.2691 23.2806L17.7669 17.7758V17.3863L23.2704 11.8828L23.3944 11.9536L29.9137 15.6579C31.7759 16.7158 31.7759 18.4469 29.9137 19.5055L23.3944 23.2098L23.2691 23.2806Z" fill="url(#paint1_linear_3_11)"/>
<path d="M23.3946 23.2101L17.7671 17.5821L1.16104 34.188C1.54047 34.5226 2.02502 34.714 2.53072 34.729C3.03642 34.7439 3.53142 34.5815 3.92995 34.2698L23.3946 23.2101Z" fill="url(#paint2_linear_3_11)"/>
<path d="M23.3946 11.9534L3.92995 0.893693C3.53142 0.58203 3.03642 0.419598 2.53072 0.43454C2.02502 0.449482 1.54047 0.640855 1.16104 0.975504L17.7671 17.5815L23.3946 11.9534Z" fill="url(#paint3_linear_3_11)"/>
<path opacity="0.2" d="M23.2705 23.0862L3.92995 34.0751C3.54677 34.3668 3.07909 34.5259 2.59751 34.5285C2.11593 34.5311 1.64658 34.3769 1.2603 34.0893L1.16104 34.1886L1.25964 34.2847L1.2603 34.284C1.64652 34.5718 2.11589 34.726 2.59751 34.7234C3.07913 34.7209 3.54683 34.5616 3.92995 34.2697L23.3946 23.2101L23.2705 23.0862Z" fill="black"/>
<path opacity="0.12" d="M1.16052 33.9936C0.723642 33.4712 0.503033 32.8015 0.543875 32.1217V32.3163C0.503008 32.9961 0.723621 33.6659 1.16052 34.1883L1.25979 34.089L1.16052 33.9936Z" fill="black"/>
<path opacity="0.12" d="M29.913 19.3106L23.2697 23.0857L23.3937 23.2096L29.913 19.5053C30.2965 19.3389 30.6284 19.0727 30.8741 18.7344C31.1197 18.3962 31.2702 17.9982 31.3098 17.5821C31.2274 17.959 31.0582 18.3114 30.8158 18.6115C30.5733 18.9115 30.2642 19.1509 29.913 19.3106V19.3106Z" fill="black"/>
<path opacity="0.25" d="M3.92983 1.08849L29.9138 15.8518C30.2651 16.0115 30.5743 16.2509 30.8167 16.5511C31.0592 16.8513 31.2283 17.204 31.3105 17.581C31.2712 17.1647 31.1208 16.7665 30.8751 16.4281C30.6294 16.0897 30.2974 15.8235 29.9138 15.6571L3.92983 0.893824C2.06763 -0.164256 0.544268 0.714612 0.544268 2.84756V3.04223C0.544268 0.909413 2.06763 0.0305447 3.92983 1.08849Z" fill="white"/>
<defs>
<linearGradient id="paint0_linear_3_11" x1="16.3027" y1="2.53656" x2="-6.05863" y2="24.8979" gradientUnits="userSpaceOnUse">
<stop stop-color="#00A0FF"/>
<stop offset="0.00657" stop-color="#00A1FF"/>
<stop offset="0.2601" stop-color="#00BEFF"/>
<stop offset="0.5122" stop-color="#00D2FF"/>
<stop offset="0.7604" stop-color="#00DFFF"/>
<stop offset="1" stop-color="#00E3FF"/>
</linearGradient>
<linearGradient id="paint1_linear_3_11" x1="32.3383" y1="17.5817" x2="0.0977197" y2="17.5817" gradientUnits="userSpaceOnUse">
<stop stop-color="#FFE000"/>
<stop offset="0.4087" stop-color="#FFBD00"/>
<stop offset="0.7754" stop-color="#FFA500"/>
<stop offset="1" stop-color="#FF9C00"/>
</linearGradient>
<linearGradient id="paint2_linear_3_11" x1="20.3367" y1="20.6401" x2="-9.98702" y2="50.9639" gradientUnits="userSpaceOnUse">
<stop stop-color="#FF3A44"/>
<stop offset="1" stop-color="#C31162"/>
</linearGradient>
<linearGradient id="paint3_linear_3_11" x1="-3.02021" y1="-8.83358" x2="10.5206" y2="4.70723" gradientUnits="userSpaceOnUse">
<stop stop-color="#32A071"/>
<stop offset="0.0685" stop-color="#2DA771"/>
<stop offset="0.4762" stop-color="#15CF74"/>
<stop offset="0.8009" stop-color="#06E775"/>
<stop offset="1" stop-color="#00F076"/>
</linearGradient>
</defs>
</svg>
