<svg width="18" height="18" viewBox="0 0 18 18" fill="none" xmlns="http://www.w3.org/2000/svg">
<path fill="currentColor" d="M6.25008 1.6665H2.58341C2.07715 1.6665 1.66675 2.07691 1.66675 2.58317V6.24984C1.66675 6.7561 2.07715 7.1665 2.58341 7.1665H6.25008C6.75634 7.1665 7.16675 6.7561 7.16675 6.24984V2.58317C7.16675 2.07691 6.75634 1.6665 6.25008 1.6665Z" fill="white"/>
<path fill="currentColor" d="M15.4167 1.6665H11.7501C11.2438 1.6665 10.8334 2.07691 10.8334 2.58317V6.24984C10.8334 6.7561 11.2438 7.1665 11.7501 7.1665H15.4167C15.923 7.1665 16.3334 6.7561 16.3334 6.24984V2.58317C16.3334 2.07691 15.923 1.6665 15.4167 1.6665Z" fill="white"/>
<path fill="currentColor" d="M6.25008 10.8332H2.58341C2.07715 10.8332 1.66675 11.2436 1.66675 11.7498V15.4165C1.66675 15.9228 2.07715 16.3332 2.58341 16.3332H6.25008C6.75634 16.3332 7.16675 15.9228 7.16675 15.4165V11.7498C7.16675 11.2436 6.75634 10.8332 6.25008 10.8332Z" fill="white"/>
<path fill="currentColor" d="M15.4167 10.8332H11.7501C11.2438 10.8332 10.8334 11.2436 10.8334 11.7498V15.4165C10.8334 15.9228 11.2438 16.3332 11.7501 16.3332H15.4167C15.923 16.3332 16.3334 15.9228 16.3334 15.4165V11.7498C16.3334 11.2436 15.923 10.8332 15.4167 10.8332Z" fill="white"/>
<path fill="currentColor" d="M6.25008 1.6665H2.58341C2.07715 1.6665 1.66675 2.07691 1.66675 2.58317V6.24984C1.66675 6.7561 2.07715 7.1665 2.58341 7.1665H6.25008C6.75634 7.1665 7.16675 6.7561 7.16675 6.24984V2.58317C7.16675 2.07691 6.75634 1.6665 6.25008 1.6665Z" stroke="white" stroke-width="2" stroke-linecap="round" stroke-linejoin="round"/>
<path fill="currentColor" d="M15.4167 1.6665H11.7501C11.2438 1.6665 10.8334 2.07691 10.8334 2.58317V6.24984C10.8334 6.7561 11.2438 7.1665 11.7501 7.1665H15.4167C15.923 7.1665 16.3334 6.7561 16.3334 6.24984V2.58317C16.3334 2.07691 15.923 1.6665 15.4167 1.6665Z" stroke="white" stroke-width="2" stroke-linecap="round" stroke-linejoin="round"/>
<path fill="currentColor" d="M6.25008 10.8332H2.58341C2.07715 10.8332 1.66675 11.2436 1.66675 11.7498V15.4165C1.66675 15.9228 2.07715 16.3332 2.58341 16.3332H6.25008C6.75634 16.3332 7.16675 15.9228 7.16675 15.4165V11.7498C7.16675 11.2436 6.75634 10.8332 6.25008 10.8332Z" stroke="white" stroke-width="2" stroke-linecap="round" stroke-linejoin="round"/>
<path fill="currentColor" d="M15.4167 10.8332H11.7501C11.2438 10.8332 10.8334 11.2436 10.8334 11.7498V15.4165C10.8334 15.9228 11.2438 16.3332 11.7501 16.3332H15.4167C15.923 16.3332 16.3334 15.9228 16.3334 15.4165V11.7498C16.3334 11.2436 15.923 10.8332 15.4167 10.8332Z" stroke="white" stroke-width="2" stroke-linecap="round" stroke-linejoin="round"/>
</svg>
