<svg width="25" height="25" viewBox="0 0 25 25" fill="none" xmlns="http://www.w3.org/2000/svg">
<path d="M4.31885 12.6216C4.31885 10.4999 5.1617 8.46502 6.66199 6.96473C8.16228 5.46444 10.1971 4.62158 12.3188 4.62158C14.4406 4.62158 16.4754 5.46444 17.9757 6.96473C19.476 8.46502 20.3188 10.4999 20.3188 12.6216V19.2886C20.3188 19.5986 20.3188 19.7536 20.2848 19.8806C20.2394 20.0501 20.1502 20.2047 20.0261 20.3288C19.9019 20.4529 19.7474 20.5421 19.5778 20.5876C19.4508 20.6216 19.2958 20.6216 18.9858 20.6216H12.3188C10.1971 20.6216 8.16228 19.7787 6.66199 18.2784C5.1617 16.7781 4.31885 14.7433 4.31885 12.6216Z" fill="#DAEAFF"/>
<path d="M8.81885 11.1216H15.8188M8.81885 14.1216H13.8188" stroke="#0772FF" stroke-linecap="round" stroke-linejoin="round"/>
</svg>
