<svg width="23" height="23" viewBox="0 0 23 23" fill="none" xmlns="http://www.w3.org/2000/svg">
<g opacity="0.3">
<path d="M14.821 20.436L8.10574 20.516C7.524 20.5243 6.96117 20.3095 6.53277 19.9159C6.10438 19.5222 5.84293 18.9795 5.80208 18.3991L5.15278 9.11333C5.14285 8.97748 5.16139 8.84105 5.20722 8.71278C5.25305 8.5845 5.32516 8.46721 5.41893 8.36842C5.51271 8.26962 5.62608 8.19149 5.75179 8.13903C5.8775 8.08658 6.01278 8.06095 6.14896 8.06379H16.6088C16.7442 8.06105 16.8787 8.08644 17.0037 8.13836C17.1288 8.19028 17.2417 8.2676 17.3354 8.36542C17.429 8.46324 17.5013 8.57943 17.5477 8.70663C17.5941 8.83384 17.6136 8.9693 17.605 9.10444L17.0802 18.2835C17.0485 18.8625 16.7971 19.4076 16.3773 19.8076C15.9575 20.2075 15.4009 20.4323 14.821 20.436Z" fill="#0772FF"/>
</g>
<path d="M13.3624 13.0447H9.39543C9.21851 13.0447 9.04884 12.9744 8.92374 12.8493C8.79863 12.7242 8.72835 12.5545 8.72835 12.3776C8.72835 12.2007 8.79863 12.031 8.92374 11.9059C9.04884 11.7808 9.21851 11.7105 9.39543 11.7105H13.3624C13.5393 11.7105 13.709 11.7808 13.8341 11.9059C13.9592 12.031 14.0294 12.2007 14.0294 12.3776C14.0294 12.5545 13.9592 12.7242 13.8341 12.8493C13.709 12.9744 13.5393 13.0447 13.3624 13.0447Z" fill="#0772FF"/>
<path d="M12.6686 16.3356H10.0892C9.91228 16.3356 9.7426 16.2653 9.6175 16.1402C9.4924 16.0151 9.42212 15.8455 9.42212 15.6685C9.42212 15.4916 9.4924 15.3219 9.6175 15.1968C9.7426 15.0717 9.91228 15.0015 10.0892 15.0015H12.6686C12.8455 15.0015 13.0152 15.0717 13.1403 15.1968C13.2654 15.3219 13.3357 15.4916 13.3357 15.6685C13.3357 15.8455 13.2654 16.0151 13.1403 16.1402C13.0152 16.2653 12.8455 16.3356 12.6686 16.3356V16.3356Z" fill="#0772FF"/>
<path d="M18.7168 7.31666H18.619C13.8178 6.6565 8.94888 6.6565 4.14771 7.31666C3.97572 7.33931 3.80167 7.29407 3.66248 7.19053C3.52329 7.087 3.4299 6.93331 3.40213 6.76207C3.37436 6.59083 3.41439 6.41551 3.51374 6.27329C3.61308 6.13107 3.76391 6.03315 3.93425 6.00028C8.87004 5.30537 13.8789 5.30537 18.8146 6.00028C18.9791 6.02729 19.1275 6.11487 19.2306 6.24578C19.3337 6.3767 19.3841 6.54147 19.3718 6.70767C19.3596 6.87386 19.2855 7.02945 19.1643 7.1438C19.0431 7.25816 18.8834 7.32299 18.7168 7.32556V7.31666Z" fill="#0772FF"/>
<path d="M14.9367 6.14259H7.82112L8.22137 4.07908C8.2927 3.7043 8.49071 3.36543 8.78219 3.11928C9.07368 2.87314 9.44093 2.73468 9.82237 2.72713H12.9621C13.3505 2.7286 13.7262 2.86522 14.0249 3.11354C14.3235 3.36186 14.5264 3.70638 14.5987 4.08798L14.9367 6.14259Z" fill="#0772FF"/>
</svg>
