<svg width="25" height="24" viewBox="0 0 25 24" fill="none" xmlns="http://www.w3.org/2000/svg">
<path d="M1.97151 1.47187L1.81213 1.63125L1.81213 6.5625L1.81213 11.4937L1.97151 11.6531L2.13088 11.8125L3.47151 11.8125L4.81213 11.8125L4.81213 15.0937C4.81213 18.3375 4.81213 18.375 4.91526 18.6422C5.0512 19.0172 5.48245 19.4484 5.85745 19.5844C6.12463 19.6875 6.1762 19.6875 8.8012 19.6875L11.4731 19.6875L11.4449 19.8375C11.4168 20.0062 11.234 21.4687 11.234 21.525C11.234 21.5484 10.7887 21.5625 10.2449 21.5625L9.25588 21.5625L9.09651 21.7219C8.95588 21.8625 8.93713 21.9094 8.93713 22.125C8.93713 22.3406 8.95588 22.3875 9.09651 22.5281L9.25588 22.6875L13.9996 22.6875L18.7434 22.6875L18.9028 22.5281C19.0434 22.3875 19.0621 22.3406 19.0621 22.125C19.0621 21.9094 19.0434 21.8625 18.9028 21.7219L18.7434 21.5625L17.7543 21.5625C17.2106 21.5625 16.7653 21.5484 16.7653 21.525C16.7653 21.4687 16.5824 20.0062 16.5543 19.8375L16.5262 19.6875L19.1981 19.6875C21.8231 19.6875 21.8746 19.6875 22.1418 19.5844C22.5168 19.4484 22.9481 19.0172 23.084 18.6422L23.1871 18.3703L23.1871 12.75L23.1871 7.12969L23.084 6.85781C22.9481 6.48281 22.5168 6.05156 22.1418 5.91562C21.8746 5.8125 21.8324 5.8125 18.7528 5.8125L15.6309 5.8125L15.4715 5.97187C15.3309 6.1125 15.3121 6.15937 15.3121 6.37031C15.3121 6.56719 15.3356 6.63281 15.4481 6.75937L15.584 6.91406L18.6028 6.9375C21.9262 6.96562 21.7574 6.94687 21.9543 7.25156C22.034 7.36875 22.0387 7.65469 22.0528 11.4703L22.0621 15.5625L13.9996 15.5625L5.93713 15.5625L5.93713 13.6875L5.93713 11.8125L9.90276 11.8125L13.8684 11.8125L14.0278 11.6531L14.1871 11.4937L14.1871 7.6875L14.1871 3.88125L14.0278 3.72187L13.8684 3.5625L11.7496 3.5625L9.63088 3.5625L9.47151 3.72187L9.31213 3.88125L9.31213 7.28437L9.31213 10.6875L8.74963 10.6875L8.18713 10.6875L8.18713 6.15937L8.18713 1.63125L8.02776 1.47187L7.86838 1.3125L4.99963 1.3125L2.13088 1.3125L1.97151 1.47187ZM4.41838 3.01875L4.57776 3.17812L4.57776 3.75L4.57776 4.32187L4.41838 4.48125C4.29651 4.60312 4.22151 4.64062 4.08557 4.64062C3.86057 4.64062 3.65901 4.51875 3.58401 4.34062C3.50432 4.15312 3.50432 3.35156 3.58401 3.16406C3.65901 2.97656 3.8512 2.86406 4.08088 2.85937C4.22151 2.85937 4.29182 2.89219 4.41838 3.01875ZM6.21838 2.93906C6.40588 3.04687 6.46213 3.20156 6.49026 3.63281C6.5137 4.10156 6.44807 4.36406 6.26057 4.51875C6.04495 4.70156 5.78713 4.6875 5.58088 4.48125L5.42151 4.32187L5.42151 3.75L5.42151 3.17812L5.58088 3.01875C5.7637 2.83594 5.99807 2.80781 6.21838 2.93906ZM4.41838 5.64375L4.57776 5.80312L4.57776 6.375L4.57776 6.94687L4.41838 7.10625C4.29651 7.22812 4.22151 7.26562 4.08557 7.26562C3.86057 7.26562 3.65901 7.14375 3.58401 6.96562C3.50432 6.77812 3.50432 5.97656 3.58401 5.78906C3.65901 5.60156 3.8512 5.48906 4.08088 5.48437C4.22151 5.48437 4.29182 5.51719 4.41838 5.64375ZM6.21838 5.56406C6.40588 5.67187 6.46213 5.82656 6.49026 6.25781C6.5137 6.72656 6.44807 6.98906 6.26057 7.14375C6.04495 7.32656 5.78713 7.3125 5.58088 7.10625L5.42151 6.94687L5.42151 6.375L5.42151 5.80312L5.58088 5.64375C5.7637 5.46094 5.99807 5.43281 6.21838 5.56406ZM12.0731 5.60625C12.2465 5.74687 12.3121 5.96719 12.3121 6.375C12.3121 6.78281 12.2465 7.00312 12.0731 7.14375C11.7824 7.39219 11.3418 7.2375 11.234 6.85312C11.2106 6.75937 11.1871 6.54375 11.1871 6.375C11.1871 6.20625 11.2106 5.99062 11.234 5.89687C11.2996 5.65781 11.5199 5.48437 11.7496 5.48437C11.8762 5.48437 11.9746 5.52187 12.0731 5.60625ZM4.41838 8.26875L4.57776 8.42812L4.57776 9L4.57776 9.57187L4.41838 9.73125C4.29651 9.85312 4.22151 9.89062 4.08557 9.89062C3.86057 9.89062 3.65901 9.76875 3.58401 9.59062C3.50432 9.40312 3.50432 8.60156 3.58401 8.41406C3.65901 8.22656 3.8512 8.11406 4.08088 8.10937C4.22151 8.10937 4.29182 8.14219 4.41838 8.26875ZM6.21838 8.18906C6.40588 8.29687 6.46213 8.45156 6.49026 8.88281C6.5137 9.35156 6.44807 9.61406 6.26057 9.76875C6.04495 9.95156 5.78713 9.9375 5.58088 9.73125L5.42151 9.57187L5.42151 9L5.42151 8.42812L5.58088 8.26875C5.7637 8.08594 5.99807 8.05781 6.21838 8.18906ZM12.0731 8.23125C12.2465 8.37187 12.3121 8.59219 12.3121 9C12.3121 9.40781 12.2465 9.62812 12.0731 9.76875C11.7824 10.0172 11.3418 9.8625 11.234 9.47812C11.2106 9.38437 11.1871 9.16875 11.1871 9C11.1871 8.83125 11.2106 8.61562 11.234 8.52187C11.2996 8.28281 11.5199 8.10937 11.7496 8.10937C11.8762 8.10937 11.9746 8.14687 12.0731 8.23125ZM22.0528 17.4047C22.0387 18.1828 22.0059 18.2859 21.7481 18.4547C21.6262 18.5344 21.2043 18.5391 13.9996 18.5391C6.79495 18.5391 6.37307 18.5344 6.2512 18.4547C5.99338 18.2859 5.96057 18.1828 5.94651 17.4047L5.92776 16.6875L13.9996 16.6875L22.0715 16.6875L22.0528 17.4047ZM15.359 19.7203C15.359 19.7812 15.5418 21.2437 15.5699 21.4078L15.5981 21.5625L13.9996 21.5625L12.4012 21.5625L12.4293 21.4125C12.4574 21.2437 12.6403 19.7812 12.6403 19.7203C12.6403 19.7016 13.2543 19.6875 13.9996 19.6875C14.7496 19.6875 15.359 19.7016 15.359 19.7203Z" fill="white"/>
<path d="M13.409 17.2219C13.2684 17.3625 13.2496 17.4094 13.2496 17.625C13.2496 17.8406 13.2684 17.8875 13.409 18.0281C13.5684 18.1875 13.5731 18.1875 13.9996 18.1875C14.4262 18.1875 14.4309 18.1875 14.5903 18.0281C14.7309 17.8875 14.7496 17.8406 14.7496 17.625C14.7496 17.4094 14.7309 17.3625 14.5903 17.2219C14.4309 17.0625 14.4262 17.0625 13.9996 17.0625C13.5731 17.0625 13.5684 17.0625 13.409 17.2219Z" fill="white"/>
<path d="M15.4715 8.22187C15.3309 8.3625 15.3121 8.40937 15.3121 8.625C15.3121 8.84062 15.3309 8.8875 15.4715 9.02812L15.6309 9.1875L18.1246 9.1875L20.6184 9.1875L20.7778 9.02812C20.9184 8.8875 20.9371 8.84062 20.9371 8.625C20.9371 8.40937 20.9184 8.3625 20.7778 8.22187L20.6184 8.0625L18.1246 8.0625L15.6309 8.0625L15.4715 8.22187Z" fill="white"/>
<path d="M15.4715 10.8469C15.3309 10.9875 15.3121 11.0344 15.3121 11.25C15.3121 11.4656 15.3309 11.5125 15.4715 11.6531L15.6309 11.8125L18.1246 11.8125L20.6184 11.8125L20.7778 11.6531C20.9184 11.5125 20.9371 11.4656 20.9371 11.25C20.9371 11.0344 20.9184 10.9875 20.7778 10.8469L20.6184 10.6875L18.1246 10.6875L15.6309 10.6875L15.4715 10.8469Z" fill="white"/>
<path d="M7.22151 13.4719C7.08088 13.6125 7.06213 13.6594 7.06213 13.875C7.06213 14.0906 7.08088 14.1375 7.22151 14.2781L7.38088 14.4375L13.9996 14.4375L20.6184 14.4375L20.7778 14.2781C20.9184 14.1375 20.9371 14.0906 20.9371 13.875C20.9371 13.6594 20.9184 13.6125 20.7778 13.4719L20.6184 13.3125L13.9996 13.3125L7.38088 13.3125L7.22151 13.4719Z" fill="white"/>
</svg>
