<svg width="24" height="24" viewBox="0 0 24 24" fill="none" xmlns="http://www.w3.org/2000/svg">
<g clip-path="url(#clip0_1_25)">
<path d="M2.49363 0.121874C2.23113 0.253124 2.06238 0.435937 1.94519 0.717187C1.88425 0.867187 1.87488 1.96875 1.87488 10.4203L1.87488 19.95L2.00613 20.2078C2.16082 20.5172 2.44207 20.7375 2.7655 20.8078C2.89675 20.8359 3.45457 20.8594 4.003 20.8594L5.00613 20.8594L5.02488 21.9984C5.04832 23.2359 5.06707 23.325 5.34363 23.6437C5.42332 23.7281 5.578 23.8453 5.69519 23.9016C5.90613 24 5.9155 24 11.1702 24C16.3452 24 16.4389 24 16.7811 23.9016C17.5405 23.6953 17.7093 23.5687 19.6358 21.7547C20.7233 20.7328 21.4733 19.9875 21.5952 19.8141C21.7077 19.6594 21.8624 19.3594 21.9468 19.1531L22.1014 18.7734L22.1155 11.4141L22.1249 4.05L21.9983 3.79687C21.8389 3.48281 21.5577 3.2625 21.2343 3.19219C21.103 3.16406 20.5452 3.14062 19.9968 3.14062L18.9936 3.14062L18.9749 2.00156C18.9561 0.759374 18.9374 0.679687 18.6608 0.365624C18.5811 0.271874 18.4218 0.154687 18.3046 0.0984366L18.0936 -9.53365e-07L10.4155 -9.53511e-07L2.73738 -9.53658e-07L2.49363 0.121874ZM17.953 0.984374C18.0421 1.07344 18.0468 1.13906 18.0468 2.10937L18.0468 3.14062L11.9905 3.15C6.51082 3.16406 5.9155 3.17344 5.76082 3.23906C5.50769 3.35625 5.26863 3.58594 5.14675 3.83437L5.03894 4.05469L5.02488 11.9859L5.0155 19.9219L3.98425 19.9219C3.01394 19.9219 2.94832 19.9172 2.85925 19.8281C2.7655 19.7344 2.7655 19.6734 2.7655 10.4062C2.7655 1.13906 2.7655 1.07812 2.85925 0.984374C2.953 0.890624 3.01394 0.890624 10.4061 0.890624C17.7983 0.890624 17.8593 0.890624 17.953 0.984374ZM21.1405 4.17187C21.2343 4.26562 21.2343 4.32656 21.2343 11.3062C21.2343 15.1828 21.2155 18.375 21.1968 18.4078C21.1733 18.45 20.6811 18.4687 19.3593 18.4781L17.5546 18.4922L17.2874 18.6187C16.9358 18.7828 16.6405 19.0641 16.4718 19.3922L16.3358 19.6641L16.3124 21.375L16.2889 23.0859L11.2171 23.1C6.19207 23.1094 6.1405 23.1094 6.04675 23.0156C5.953 22.9219 5.953 22.8656 5.953 13.5844C5.953 4.96406 5.95769 4.24219 6.03269 4.1625C6.103 4.08281 6.403 4.07812 13.5796 4.07812C20.9858 4.07812 21.0468 4.07812 21.1405 4.17187ZM20.6905 19.4625C20.6764 19.4953 19.8983 20.2406 18.9702 21.1125L17.2733 22.7016L17.2593 21.3047C17.2452 19.7484 17.2499 19.7297 17.578 19.5141C17.728 19.4062 17.7561 19.4062 19.2233 19.4062C20.3999 19.4062 20.7093 19.4203 20.6905 19.4625Z" fill="#7C8493"/>
<path d="M9.07514 7.34062C8.89233 7.52812 8.90171 7.82344 9.09858 7.9875L9.24389 8.10938L13.6033 8.10938L17.9626 8.10938L18.0986 7.97344C18.2861 7.78125 18.2861 7.54687 18.0986 7.35469L17.9626 7.21875L13.5798 7.21875L9.20171 7.21875L9.07514 7.34062Z" fill="#7C8493"/>
<path d="M9.20103 10.1484C9.12134 10.1812 9.03228 10.2516 9.00416 10.3078C8.91509 10.4719 8.94322 10.7203 9.06509 10.8609L9.17759 10.9922L13.5932 10.9922L18.0088 10.9922L18.1213 10.8609C18.2526 10.7062 18.2713 10.4344 18.1635 10.2797C18.1213 10.2234 18.0135 10.1531 17.9151 10.125C17.8026 10.0969 16.2932 10.0781 13.5463 10.0781C10.087 10.0828 9.32291 10.0922 9.20103 10.1484Z" fill="#7C8493"/>
<path d="M9.20646 13.0313C8.98615 13.1203 8.88302 13.4625 9.0049 13.6969C9.12677 13.9219 9.08458 13.9219 13.5565 13.9219C16.294 13.9219 17.8033 13.9031 17.9158 13.875C18.0143 13.8469 18.1221 13.7766 18.1643 13.7203C18.2721 13.5656 18.2533 13.2938 18.1221 13.1391L18.0096 13.0078L13.6549 12.9984C11.2596 12.9938 9.25802 13.0078 9.20646 13.0313Z" fill="#7C8493"/>
<path d="M9.16394 15.9469C9.00925 16.0359 8.95769 16.1391 8.953 16.3406C8.953 16.4906 8.98113 16.5656 9.07488 16.6594L9.20144 16.7813L11.7046 16.7813L14.2124 16.7813L14.3483 16.6453C14.5358 16.4531 14.5358 16.2187 14.3483 16.0266L14.2124 15.8906L11.7327 15.8906C9.96082 15.8953 9.22957 15.9094 9.16394 15.9469Z" fill="#7C8493"/>
</g>
<defs>
<clipPath id="clip0_1_25">
<rect width="24" height="24" fill="white"/>
</clipPath>
</defs>
</svg>
