<svg width="25" height="24" viewBox="0 0 25 24" fill="none" xmlns="http://www.w3.org/2000/svg">
<g clip-path="url(#clip0_1_11)">
<path d="M3.25037 0.0983207C3.04881 0.145196 2.68787 0.285821 2.4535 0.407696C2.10194 0.585821 1.94256 0.707696 1.57694 1.07801C1.1035 1.54676 0.869124 1.92176 0.630061 2.57801L0.522249 2.8827L0.508186 11.8358C0.494124 21.9608 0.461312 21.1124 0.883186 21.9843C1.09412 22.4202 1.16912 22.5233 1.57225 22.9264C1.97537 23.3296 2.0785 23.4046 2.51444 23.6155C3.38162 24.0327 2.54256 23.9999 12.4988 23.9999C22.4551 23.9999 21.616 24.0327 22.4832 23.6155C22.9191 23.4046 23.0222 23.3296 23.4254 22.9264C23.8285 22.5233 23.9035 22.4202 24.1144 21.9843C24.5316 21.1171 24.4988 21.9561 24.4988 11.9905C24.4988 3.31863 24.4988 3.15926 24.4051 2.7702C24.3535 2.54988 24.2129 2.19363 24.091 1.94988C23.9129 1.60301 23.7863 1.43895 23.4207 1.07332C23.0222 0.670196 22.9191 0.595196 22.4832 0.384258C21.616 -0.0329293 22.4597 -0.000116825 12.466 0.00457067C3.89256 0.00457067 3.60662 0.00925817 3.25037 0.0983207ZM21.4988 1.2327C22.1129 1.43895 22.6097 1.82332 22.9519 2.34832C23.1816 2.70457 23.2707 2.97176 23.3269 3.47332C23.3879 4.00301 23.3879 19.9968 23.3269 20.5264C23.2707 21.028 23.1816 21.2952 22.9566 21.6468C22.6097 22.1764 22.1082 22.5655 21.5222 22.7483L21.1941 22.8514L12.4988 22.8514L3.8035 22.8514L3.47537 22.7483C2.63631 22.4858 1.96131 21.7921 1.73162 20.953C1.65194 20.6671 1.64725 20.1561 1.64725 11.9764C1.64725 3.7077 1.65194 3.29051 1.73162 3.02332C2.03631 2.0202 2.87537 1.29832 3.87381 1.17176C4.04256 1.15301 8.01756 1.13895 12.7097 1.14363C20.8379 1.14832 21.2551 1.15301 21.4988 1.2327Z" fill="#7C8493"/>
<path d="M7.48271 4.48595C7.17334 4.59845 6.72803 5.05782 6.60146 5.4047C6.50771 5.65313 6.49834 5.76563 6.49834 6.70313L6.49834 7.73438L6.20303 7.73438C5.66865 7.73438 5.25615 8.02501 5.11084 8.51251C5.02646 8.79376 5.02178 9.74063 5.10615 10.0594C5.2374 10.5609 5.65459 10.875 6.20303 10.875L6.49834 10.875L6.49834 12L6.49834 13.125L6.20303 13.125C5.65459 13.125 5.2374 13.4391 5.10615 13.9406C5.02178 14.2594 5.02646 15.2063 5.11084 15.4875C5.25615 15.975 5.66865 16.2656 6.20303 16.2656L6.49834 16.2656L6.49834 17.2969C6.49834 18.5578 6.53584 18.7031 6.98584 19.1531C7.46865 19.6359 6.92021 19.5984 13.2718 19.5844L18.803 19.5703L19.0327 19.4578C19.4733 19.2422 19.7874 18.8156 19.8999 18.2906C19.9749 17.9391 19.9749 6.06095 19.8999 5.70938C19.778 5.14688 19.4077 4.67813 18.939 4.5047C18.6858 4.40626 18.6249 4.40626 13.1874 4.41095C8.29834 4.41095 7.67021 4.42032 7.48271 4.48595ZM18.4796 5.60157C18.7983 5.73282 18.7796 5.34376 18.7796 12C18.7796 17.1656 18.7702 18.0281 18.7093 18.1688C18.578 18.4828 18.8733 18.4688 13.2108 18.4688C9.59678 18.4688 8.06396 18.4547 7.95615 18.4172C7.69834 18.3281 7.67021 18.2063 7.67021 17.1797L7.67021 16.2656L7.94209 16.2656C8.14365 16.2656 8.27959 16.2328 8.45771 16.1438C8.93584 15.9047 9.07646 15.5719 9.07646 14.6953C9.07646 13.8188 8.93584 13.4859 8.45771 13.2469C8.27959 13.1578 8.14365 13.125 7.94209 13.125L7.67021 13.125L7.67021 12L7.67021 10.875L7.94209 10.875C8.45303 10.875 8.86553 10.575 9.01084 10.0969C9.0999 9.80157 9.0999 8.80782 9.01084 8.51251C8.86553 8.03438 8.45303 7.73438 7.94209 7.73438L7.67021 7.73438L7.67021 6.82032C7.67021 5.8172 7.69365 5.69532 7.92803 5.59688C8.14834 5.49845 18.2452 5.50313 18.4796 5.60157ZM7.90459 9.3047L7.90459 9.70313L7.06084 9.70313L6.21709 9.70313L6.21709 9.3047L6.21709 8.90626L7.06084 8.90626L7.90459 8.90626L7.90459 9.3047ZM7.90459 14.6953L7.90459 15.0938L7.06084 15.0938L6.21709 15.0938L6.21709 14.6953L6.21709 14.2969L7.06084 14.2969L7.90459 14.2969L7.90459 14.6953Z" fill="#7C8493"/>
<path d="M11.6551 7.17644C10.966 7.33113 10.6941 7.44363 10.441 7.66863C9.38631 8.61551 9.73787 10.9546 11.2847 13.3358C12.8972 15.8202 15.1894 17.3343 16.5629 16.8186C16.9144 16.6874 17.3504 16.2561 17.7019 15.6796L17.9597 15.2624L17.9597 14.8593C17.9597 14.503 17.9457 14.4327 17.8426 14.2827C17.6879 14.053 16.4879 13.0499 16.2347 12.9374C15.8597 12.7639 15.2691 12.8764 15.0113 13.1671C14.9597 13.2186 14.8847 13.2655 14.8379 13.2655C14.6035 13.2655 13.0097 11.0202 13.0144 10.7014C13.0191 10.6499 13.1129 10.5608 13.2629 10.4764C13.5816 10.2889 13.7738 9.98426 13.8019 9.61863C13.816 9.38426 13.7879 9.25769 13.5394 8.57801C13.3847 8.15144 13.2301 7.73894 13.1879 7.65926C13.0144 7.31707 12.6019 7.07332 12.2222 7.08269C12.1285 7.08269 11.8754 7.12488 11.6551 7.17644ZM12.391 8.85926C12.4988 9.15457 12.5879 9.41707 12.5879 9.44519C12.5879 9.46863 12.5035 9.54363 12.4004 9.60926C12.0113 9.84363 11.8191 10.2702 11.8519 10.8046C11.8707 11.1046 11.9035 11.1983 12.1238 11.6061C12.4613 12.2436 13.0238 13.0593 13.5301 13.6499C14.0644 14.2733 14.3363 14.4374 14.8519 14.4374C15.1988 14.4374 15.4238 14.3671 15.6676 14.1796L15.8176 14.0624L16.3097 14.4702L16.8019 14.878L16.6379 15.1405C16.5488 15.2811 16.3988 15.478 16.3051 15.5764C16.1035 15.7827 15.9441 15.8014 15.5222 15.6561C13.7363 15.0421 11.5613 12.253 11.0926 9.98426C10.9894 9.47801 10.9801 9.24363 11.0457 8.92019C11.1207 8.57801 11.2051 8.49832 11.6082 8.39519C12.1801 8.24519 12.1613 8.23582 12.391 8.85926Z" fill="#7C8493"/>
</g>
<defs>
<clipPath id="clip0_1_11">
<rect width="24" height="24" fill="white" transform="translate(0.499268)"/>
</clipPath>
</defs>
</svg>
